<?xml version="1.0" standalone="no"?>
<!DOCTYPE svg PUBLIC "-//W3C//DTD SVG 20010904//EN"
 "http://www.w3.org/TR/2001/REC-SVG-20010904/DTD/svg10.dtd">
<svg version="1.0" xmlns="http://www.w3.org/2000/svg"
 width="789.000000pt" height="789.000000pt" viewBox="0 0 789.000000 789.000000"
 preserveAspectRatio="xMidYMid meet">
<metadata>
Created by potrace 1.11, written by Peter Selinger 2001-2013
</metadata>
<g transform="translate(0.000000,789.000000) scale(0.100000,-0.100000)"
fill="#000000" stroke="none">
<path d="M1909 5199 c-32 -17 -1227 -1220 -1232 -1239 -3 -11 3 -30 13 -43 44
-56 1191 -1199 1216 -1212 15 -8 34 -11 41 -6 31 17 1232 1225 1237 1244 6 25
24 6 -680 710 -298 297 -550 544 -561 548 -10 4 -26 3 -34 -2z"/>
<path d="M3856 4676 c-32 -105 -218 -736 -291 -985 -31 -106 -54 -195 -51
-198 3 -4 234 -6 336 -4 23 1 27 9 59 121 19 65 39 121 45 123 6 2 85 3 176 3
l164 -1 27 -118 c15 -65 30 -121 32 -124 7 -6 377 -6 384 0 4 5 -13 70 -85
312 -17 55 -53 177 -80 270 -72 242 -160 539 -183 616 l-20 66 -244 0 -245 0
-24 -81z m272 -313 c19 -80 91 -348 98 -366 5 -15 -5 -17 -110 -17 -64 0 -116
4 -116 9 0 5 23 96 51 202 28 107 52 200 52 207 1 28 14 9 25 -35z"/>
<path d="M4910 4124 l0 -634 33 -1 c99 -2 309 1 315 5 4 2 7 148 6 323 0 175
2 322 4 327 4 7 99 -135 372 -554 l65 -100 60 -1 c33 0 99 -1 148 -2 l87 -2
-2 635 -3 635 -165 1 c-91 1 -167 -2 -170 -7 -3 -4 -5 -152 -5 -327 1 -302 0
-319 -16 -299 -14 19 -103 153 -351 533 l-66 101 -156 0 -156 0 0 -633z"/>
<path d="M6248 4741 c-4 -14 -3 -254 1 -272 0 -4 99 -7 219 -7 119 0 238 0
264 -1 l47 -1 -264 -349 -264 -350 -2 -130 c-1 -72 0 -134 4 -137 4 -4 795 -8
945 -5 22 1 22 2 22 146 0 109 -3 145 -12 146 -7 0 -129 1 -270 1 l-258 0 22
32 c12 17 128 173 257 346 l235 315 1 141 1 141 -472 0 c-425 0 -473 -2 -476
-16z"/>
<path d="M3718 3173 c-22 -5 -41 -63 -40 -119 1 -47 25 -104 45 -105 6 0 20
-2 29 -4 10 -2 30 6 45 18 22 18 26 19 20 4 -4 -10 -2 -17 6 -17 10 0 15 68 8
111 -1 8 -68 5 -77 -4 -7 -7 17 -11 44 -8 19 3 14 -47 -8 -69 -30 -30 -57 -25
-77 15 -15 27 -10 129 6 149 22 26 69 20 83 -9 12 -28 28 -33 28 -10 0 39 -55
63 -112 48z"/>
<path d="M3899 3173 c-1 -5 -2 -55 -3 -112 -1 -112 -1 -112 56 -113 66 -1 84
2 70 11 -7 4 -31 7 -53 6 -22 -1 -42 1 -44 5 -2 3 -5 52 -6 108 -1 56 -5 102
-10 102 -5 0 -10 -3 -10 -7z"/>
<path d="M4093 3154 c-10 -16 -19 -53 -21 -88 -4 -57 -2 -64 26 -94 30 -32 48
-35 93 -17 25 10 39 51 39 116 0 50 -4 64 -25 84 -34 35 -88 34 -112 -1z m100
-15 c24 -34 14 -166 -12 -170 -3 0 -16 -2 -27 -4 -33 -7 -55 26 -58 86 -4 71
14 109 54 109 18 0 34 -8 43 -21z"/>
<path d="M4299 3177 c-1 -1 -3 -53 -4 -114 l-2 -113 26 -1 c72 -3 108 10 120
44 10 27 -6 67 -27 67 -13 0 -13 3 1 18 19 20 22 59 8 81 -6 10 -30 16 -65 18
-31 1 -57 1 -57 0z m105 -39 c16 -26 -4 -52 -47 -59 -35 -6 -35 -5 -39 33 -2
22 -1 41 1 44 12 11 75 -2 85 -18z m-1 -96 c30 -33 12 -67 -40 -75 -39 -6 -43
-1 -46 53 -3 40 -2 40 34 40 22 0 42 -7 52 -18z"/>
<path d="M4516 3070 c-41 -124 -40 -120 -26 -120 5 0 16 15 23 33 14 33 27 36
90 28 4 -1 13 -14 18 -31 6 -16 17 -30 24 -30 19 0 -57 224 -77 228 -11 2 -25
-26 -52 -108z m72 24 l19 -60 -40 -3 c-37 -2 -39 -1 -32 21 3 13 12 42 18 65
5 24 12 42 13 40 2 -2 12 -30 22 -63z"/>
<path d="M4700 3065 c0 -112 1 -115 23 -116 12 0 41 -1 65 -2 23 -1 42 1 42 6
0 7 -5 8 -55 12 -16 1 -35 3 -40 4 -7 0 -10 37 -10 94 1 98 -2 117 -16 117 -5
0 -9 -52 -9 -115z"/>
<path d="M4989 3168 c-5 -77 0 -211 10 -221 8 -8 11 3 11 46 l0 57 38 0 c43 0
55 6 71 37 14 27 0 67 -28 82 -28 15 -101 14 -102 -1z m99 -20 c14 -14 16 -47
3 -66 -4 -7 -23 -14 -42 -15 -34 -2 -34 -2 -37 46 l-3 47 33 0 c19 0 39 -5 46
-12z"/>
<path d="M5182 3064 c1 -89 4 -114 14 -115 72 -5 114 -2 114 7 0 6 -20 10 -49
9 -58 -2 -57 -5 -56 117 1 59 -3 89 -11 92 -9 3 -12 -25 -12 -110z"/>
<path d="M5357 3173 c-2 -5 -3 -50 -2 -101 1 -72 5 -96 18 -109 23 -23 96 -21
114 3 16 22 19 214 3 214 -12 0 -12 -8 -12 -113 0 -84 -12 -110 -51 -104 -44
5 -47 14 -47 118 0 86 -8 119 -23 92z"/>
<path d="M5588 3173 c-22 -6 -39 -54 -26 -77 5 -9 34 -28 64 -41 37 -16 54
-30 54 -42 -1 -58 -87 -69 -105 -13 -8 25 -25 26 -25 2 0 -42 69 -71 117 -49
27 12 44 57 31 81 -5 9 -34 28 -64 41 -46 20 -55 28 -52 47 4 30 44 50 69 35
11 -7 19 -17 19 -24 0 -7 7 -13 15 -13 19 0 19 10 -1 38 -15 21 -51 27 -96 15z"/>
<path d="M5869 3133 c-2 -120 -1 -174 3 -178 9 -10 118 -9 118 0 0 6 -18 11
-40 11 -22 1 -44 2 -50 3 -6 0 -10 44 -10 106 0 63 -4 105 -10 105 -5 0 -10
-21 -11 -47z"/>
<path d="M6049 3173 c-1 -5 -2 -56 -3 -115 -1 -81 2 -108 11 -108 10 0 13 29
13 115 0 70 -4 115 -10 115 -5 0 -11 -3 -11 -7z"/>
<path d="M6138 3173 c-2 -5 -3 -55 -3 -112 0 -74 4 -106 13 -108 9 -4 12 21
13 99 l0 103 31 -102 c18 -61 36 -103 43 -103 12 0 65 147 65 179 0 7 3 10 8
7 4 -2 7 -45 6 -95 -1 -67 2 -91 11 -91 15 0 17 217 2 227 -17 11 -37 -23 -61
-106 -13 -45 -26 -85 -29 -87 -2 -3 -17 40 -32 96 -22 78 -32 100 -46 100 -10
0 -19 -3 -21 -7z"/>
<path d="M6409 3178 c-1 -2 -2 -54 -3 -115 -1 -86 2 -113 11 -113 10 0 13 29
13 115 0 70 -4 115 -10 115 -5 0 -11 -1 -11 -2z"/>
<path d="M6485 3170 c-4 -6 7 -10 24 -10 l31 0 0 -105 c0 -79 3 -105 13 -105
10 0 13 25 12 105 l-1 105 33 0 c18 0 33 4 33 9 0 12 -137 13 -145 1z"/>
<path d="M6679 3173 c-1 -5 -2 -56 -3 -115 l-1 -108 32 -1 c44 -1 80 -1 96 0
33 3 -18 17 -58 16 l-45 -1 0 48 0 48 51 0 c31 0 48 4 44 10 -3 6 -26 10 -51
10 l-44 0 0 40 0 40 50 0 c28 0 50 5 50 10 0 11 -119 14 -121 3z"/>
<path d="M6859 3170 c0 -5 0 -35 0 -65 0 -30 0 -79 0 -108 l1 -53 48 6 c26 3
51 6 56 5 24 -1 48 54 47 109 0 66 -13 93 -47 106 -33 13 -104 13 -105 0z
m109 -28 c22 -22 28 -106 9 -142 -12 -24 -66 -44 -84 -31 -5 3 -10 48 -10 99
l0 92 33 0 c20 0 42 -8 52 -18z"/>
<path d="M7089 3176 c-3 -3 -4 -33 -2 -68 1 -35 2 -71 2 -80 1 -10 6 -18 11
-18 6 0 10 35 10 85 0 75 -6 96 -21 81z"/>
<path d="M7083 2965 c0 -8 6 -15 14 -15 7 0 13 7 13 15 0 8 -6 15 -13 15 -8 0
-14 -7 -14 -15z"/>
</g>
</svg>
